# xmcd
#
# Track frame offsets:
#	150
#	11966
#	21171
#	40254
#	60240
#	83649
#	102289
#	118271
#	137342
#	157971
#	169325
#	188684
#	211562
#	231088
#
# Disc length: 3219 seconds
#
# Revision: 0
# Processed by: cddbd v1.5.2PL0 Copyright (c) Steve Scherf et al.
# Submitted via: EasyCDDAExtractor 10.2.0.1
#
DISCID=a90c910e
DTITLE=Various Artist - Acustico Internacional Vol. 2
DYEAR=2000
DGENRE=Ballad
TTITLE0=The Outfield - Your love
TTITLE1=Frente - Everytime I See You Falling
TTITLE2=Four non Blondes - What´s up
TTITLE3=No Doubt - Don´t speak
TTITLE4=Duran Duran - Ordinary World
TTITLE5=The church - Under the milky way
TTITLE6=Simply Red - Holding back the years
TTITLE7=Everything but the girl - I don't want to talk about it
TTITLE8=Eric Clapton - Tears in heaven
TTITLE9=Emerson, Lake and Palmer - From the beginning
TTITLE10=U2 - One
TTITLE11=Seal - Crazy
TTITLE12=New Artist - Song Name
TTITLE13=London Beat - I've been thinking about you
EXTD=
EXTT0=
EXTT1=
EXTT2=
EXTT3=
EXTT4=
EXTT5=
EXTT6=
EXTT7=
EXTT8=
EXTT9=
EXTT10=
EXTT11=
EXTT12=
EXTT13=
PLAYORDER=
